{
  "accessors": [
    {
      "bufferView": 2,
      "componentType": 5126,
      "count": 53938,
      "max": [
        8.283649444580078,
        5.556288719177246,
        78.26162719726563
      ],
      "min": [
        -8.413230895996094,
        -14.844176292419434,
        -18.397985458374023
      ],
      "type": "VEC3"
    },
    {
      "bufferView": 2,
      "byteOffset": 647256,
      "componentType": 5126,
      "count": 53938,
      "max": [
        1.0,
        1.0,
        1.0
      ],
      "min": [
        -1.0,
        -1.0,
        -1.0
      ],
      "type": "VEC3"
    },
    {
      "bufferView": 1,
      "componentType": 5126,
      "count": 53938,
      "max": [
        0.9849012494087219,
        0.9980080127716064
      ],
      "min": [
        0.0,
        0.0
      ],
      "type": "VEC2"
    },
    {
      "bufferView": 1,
      "byteOffset": 431504,
      "componentType": 5126,
      "count": 53938,
      "max": [
        0.9849012494087219,
        0.9980080127716064
      ],
      "min": [
        0.0,
        0.0
      ],
      "type": "VEC2"
    },
    {
      "bufferView": 0,
      "componentType": 5125,
      "count": 108483,
      "type": "SCALAR"
    }
  ],
  "asset": {
    "extras": {
      "author": "Rajni (https://sketchfab.com/cgRajni)",
      "license": "CC-BY-4.0 (http://creativecommons.org/licenses/by/4.0/)",
      "source": "https://sketchfab.com/3d-models/train-a0166b85033643acb984ce6f491545cf",
      "title": "train"
    },
    "generator": "Sketchfab-12.66.0",
    "version": "2.0"
  },
  "bufferViews": [
    {
      "buffer": 0,
      "byteLength": 433932,
      "name": "floatBufferViews",
      "target": 34963
    },
    {
      "buffer": 0,
      "byteLength": 863008,
      "byteOffset": 433932,
      "byteStride": 8,
      "name": "floatBufferViews",
      "target": 34962
    },
    {
      "buffer": 0,
      "byteLength": 1294512,
      "byteOffset": 1296940,
      "byteStride": 12,
      "name": "floatBufferViews",
      "target": 34962
    }
  ],
  "buffers": [
    {
      "byteLength": 2591452,
      "uri": "scene.bin"
    }
  ],
  "extensionsRequired": [
    "KHR_materials_pbrSpecularGlossiness"
  ],
  "extensionsUsed": [
    "KHR_materials_pbrSpecularGlossiness"
  ],
  "materials": [
    {
      "doubleSided": true,
      "extensions": {
        "KHR_materials_pbrSpecularGlossiness": {
          "diffuseFactor": [
            1.0,
            1.0,
            1.0,
            1.0
          ],
          "glossinessFactor": 0.9207483815999999,
          "specularFactor": [
            0.3858612805,
            0.3858612805,
            0.3858612805
          ]
        }
      },
      "name": "blinn250"
    }
  ],
  "meshes": [
    {
      "name": "polySurface6776_blinn250_0",
      "primitives": [
        {
          "attributes": {
            "NORMAL": 1,
            "POSITION": 0,
            "TEXCOORD_0": 2,
            "TEXCOORD_1": 3
          },
          "indices": 4,
          "material": 0,
          "mode": 4
        }
      ]
    }
  ],
  "nodes": [
    {
      "children": [
        1
      ],
      "matrix": [
        1.0,
        0.0,
        0.0,
        0.0,
        0.0,
        0.03687079250812508,
        0.9993200302124023,
        0.0,
        0.0,
        -0.9993200302124023,
        0.03687079250812508,
        0.0,
        0.0,
        -8.181159019470229,
        60.01457595825195,
        1.0
      ],
      "name": "Sketchfab_model"
    },
    {
      "children": [
        2
      ],
      "matrix": [
        1.0,
        0.0,
        0.0,
        0.0,
        0.0,
        0.0,
        1.0,
        0.0,
        0.0,
        -1.0,
        0.0,
        0.0,
        0.0,
        0.0,
        0.0,
        1.0
      ],
      "name": "e98a62bd0cff4f279e4dcd1e15f72933.fbx"
    },
    {
      "children": [
        3
      ],
      "name": "RootNode"
    },
    {
      "children": [
        4
      ],
      "name": "polySurface6776"
    },
    {
      "mesh": 0,
      "name": "polySurface6776_blinn250_0"
    }
  ],
  "scene": 0,
  "scenes": [
    {
      "name": "Sketchfab_Scene",
      "nodes": [
        0
      ]
    }
  ]
}
